<svg height="295.579" viewBox="0 0 277.379 295.579" width="277.379" xmlns="http://www.w3.org/2000/svg"><path d="m-2094.412 140.55c-11.03 1.06-22.12 1.49-33.18 1.92-50.98 1.97-102.09 3.94-152.92-.61-22.98-2.05-46.53-5.67-66.51-18.33-9.84-6.24-18.92-15.09-22.74-26.9-3.84-11.91-1.81-25.29 2.59-36.96s11-22.13 16.7-33.1c12.14-23.37 20.06-52.89 8.86-76.83-3.22-6.88-7.88-12.91-10.5-20.1-3.78-10.34-2.97-21.97-1.59-33.02 1.83-14.69 5.24-30.5 15.79-39.69 10.96-9.53 26.52-9.05 40.12-5.64 21.16 5.28 40.67 16.36 60.39 26.36s40.35 19.14 62.02 20.12c19.14.87 41.46-5.63 54.17-22.47 6.67-8.87 16.52-13.31 26.8-13.95" fill="#f9a7bb" opacity=".675" transform="translate(2371.791 150.943)"/></svg>