<svg height="38.411" viewBox="0 0 86.993 38.411" width="86.993" xmlns="http://www.w3.org/2000/svg" xmlns:xlink="http://www.w3.org/1999/xlink"><linearGradient id="a" gradientUnits="objectBoundingBox" x2="1" y1=".5" y2=".5"><stop offset="0" stop-color="#f4aa8e"/><stop offset="1" stop-color="#f9a7bb"/></linearGradient><path d="m91.984 382.436-6.984-12.18h-1.774v12.18h-7.8v-32.252h13.32a14.394 14.394 0 0 1 6.479 1.322 9.152 9.152 0 0 1 3.968 3.628 10.384 10.384 0 0 1 1.323 5.268 9.371 9.371 0 0 1 -1.939 5.977 9.908 9.908 0 0 1 -5.633 3.375l7.663 12.683zm-8.759-17.518h4.836a4.87 4.87 0 0 0 3.421-1.026 3.959 3.959 0 0 0 1.095-3.034 4.025 4.025 0 0 0 -1.117-3.011 4.69 4.69 0 0 0 -3.4-1.095h-4.834z" fill="#f4aa8e" transform="translate(-75.425 -349.681)"/><path d="m158.219 388.044-4.2-5.7a17.959 17.959 0 0 1 -3.513.364 16.319 16.319 0 0 1 -8.234-2.12 15.562 15.562 0 0 1 -5.885-5.908 17.829 17.829 0 0 1 0-17.037 15.61 15.61 0 0 1 5.885-5.886 17.13 17.13 0 0 1 16.514 0 15.462 15.462 0 0 1 5.862 5.886 16.885 16.885 0 0 1 2.144 8.508 17.072 17.072 0 0 1 -1.711 7.663 15.551 15.551 0 0 1 -4.721 5.7l7.208 8.532zm-13.799-15.144a8.618 8.618 0 0 0 12.157 0 11.177 11.177 0 0 0 .023-13.5 8.673 8.673 0 0 0 -12.18-.022 11.255 11.255 0 0 0 0 13.525z" fill="#f9a7bb" transform="translate(-80.579 -349.633)"/><g fill="url(#a)"><path d="m0 0h7.527v7.454h-7.527z" transform="translate(35.354 5.155)"/><path d="m0 0h7.527v7.454h-7.527z" transform="translate(35.354 20.967)"/><path d="m0 0h7.527v7.163h-7.527z" transform="translate(27.462 13.23)"/><path d="m0 0h7.527v7.163h-7.527z" transform="translate(43.245 13.23)"/></g></svg>