<svg height="27.949" viewBox="0 0 237.999 27.949" width="237.999" xmlns="http://www.w3.org/2000/svg"><path d="m-590.881 334.5-4.6-8.033h-1.173v8.033h-5.146v-21.27h8.785a9.489 9.489 0 0 1 4.272.872 6.034 6.034 0 0 1 2.617 2.392 6.848 6.848 0 0 1 .872 3.474 6.18 6.18 0 0 1 -1.279 3.942 6.534 6.534 0 0 1 -3.716 2.226l5.054 8.364zm-5.776-11.553h3.189a3.212 3.212 0 0 0 2.256-.677 2.611 2.611 0 0 0 .722-2 2.652 2.652 0 0 0 -.737-1.986 3.091 3.091 0 0 0 -2.241-.722h-3.189z" fill="#f4aa8e" transform="translate(601.802 -310.282)"/><path d="m-560.893 321.2a5.245 5.245 0 0 1 2.046 2.377v-3.037h5.114v16.788h-5.114v-3.039a5.245 5.245 0 0 1 -2.046 2.377 6.079 6.079 0 0 1 -3.309.872 6.8 6.8 0 0 1 -3.716-1.037 7.1 7.1 0 0 1 -2.587-2.993 10.375 10.375 0 0 1 -.948-4.574 10.354 10.354 0 0 1 .948-4.588 7.12 7.12 0 0 1 2.587-2.978 6.8 6.8 0 0 1 3.716-1.037 6.078 6.078 0 0 1 3.309.869zm-4.317 4.723a4.247 4.247 0 0 0 -1.008 3.009 4.244 4.244 0 0 0 1.008 3.008 3.463 3.463 0 0 0 2.663 1.083 3.477 3.477 0 0 0 2.662-1.113 4.19 4.19 0 0 0 1.039-2.979 4.179 4.179 0 0 0 -1.039-2.993 3.5 3.5 0 0 0 -2.662-1.1 3.465 3.465 0 0 0 -2.663 1.087z" fill="#f4aa8e" transform="translate(589.714 -313.11)"/><path d="m-528.775 313.952a2.6 2.6 0 0 0 -1.836.542 2.491 2.491 0 0 0 -.632 1.744h3.039v4.332h-3.039v12.456h-5.145v-12.455h-2.012v-4.332h2.015v-.18a6.28 6.28 0 0 1 1.821-4.828 7.458 7.458 0 0 1 5.279-1.7q.722 0 1.083.03v4.422z" fill="#f4aa8e" transform="translate(576.55 -308.808)"/><path d="m-508.594 321.2a5.246 5.246 0 0 1 2.046 2.377v-3.037h5.114v16.788h-5.114v-3.039a5.247 5.247 0 0 1 -2.046 2.377 6.076 6.076 0 0 1 -3.309.872 6.8 6.8 0 0 1 -3.715-1.037 7.1 7.1 0 0 1 -2.587-2.993 10.375 10.375 0 0 1 -.948-4.574 10.354 10.354 0 0 1 .948-4.588 7.119 7.119 0 0 1 2.587-2.978 6.8 6.8 0 0 1 3.715-1.037 6.075 6.075 0 0 1 3.309.869zm-4.317 4.723a4.245 4.245 0 0 0 -1.008 3.009 4.242 4.242 0 0 0 1.008 3.008 3.462 3.462 0 0 0 2.662 1.083 3.477 3.477 0 0 0 2.663-1.113 4.19 4.19 0 0 0 1.039-2.979 4.179 4.179 0 0 0 -1.039-2.993 3.5 3.5 0 0 0 -2.663-1.1 3.463 3.463 0 0 0 -2.661 1.087z" fill="#f4aa8e" transform="translate(568.883 -313.11)"/><path d="m-468.587 329.866h-11.643a3.887 3.887 0 0 0 .963 2.723 3.1 3.1 0 0 0 2.226.827 3.041 3.041 0 0 0 1.9-.572 2.668 2.668 0 0 0 .993-1.474h5.445a7.117 7.117 0 0 1 -1.444 3.175 7.7 7.7 0 0 1 -2.828 2.2 8.958 8.958 0 0 1 -3.821.8 9.021 9.021 0 0 1 -4.377-1.037 7.418 7.418 0 0 1 -2.993-2.993 9.29 9.29 0 0 1 -1.083-4.574 9.378 9.378 0 0 1 1.068-4.588 7.323 7.323 0 0 1 2.993-2.978 9.114 9.114 0 0 1 4.392-1.037 9.11 9.11 0 0 1 4.392 1.023 7.227 7.227 0 0 1 2.933 2.872 8.555 8.555 0 0 1 1.038 4.257 7.116 7.116 0 0 1 -.154 1.376zm-5.942-4.648a3.269 3.269 0 0 0 -2.271-.827 3.365 3.365 0 0 0 -2.347.842 3.525 3.525 0 0 0 -1.053 2.467h6.559a3.093 3.093 0 0 0 -.888-2.481z" fill="#f4aa8e" transform="translate(555.381 -313.11)"/><path d="m-447.709 311.58v22.263h-5.145v-22.263z" fill="#f4aa8e" transform="translate(542.476 -309.624)"/><g fill="#f9a7bb"><path d="m-413.629 338.011-2.768-3.761a11.838 11.838 0 0 1 -2.317.24 10.765 10.765 0 0 1 -5.43-1.4 10.261 10.261 0 0 1 -3.88-3.9 11.114 11.114 0 0 1 -1.429-5.625 11.035 11.035 0 0 1 1.429-5.611 10.293 10.293 0 0 1 3.88-3.882 10.772 10.772 0 0 1 5.43-1.4 10.833 10.833 0 0 1 5.461 1.4 10.2 10.2 0 0 1 3.865 3.882 11.13 11.13 0 0 1 1.414 5.611 11.259 11.259 0 0 1 -1.128 5.054 10.256 10.256 0 0 1 -3.114 3.761l4.754 5.626zm-9.1-9.989a5.132 5.132 0 0 0 4.016 1.655 5.146 5.146 0 0 0 4-1.655 6.367 6.367 0 0 0 1.5-4.452 6.406 6.406 0 0 0 -1.49-4.453 5.134 5.134 0 0 0 -4.016-1.655 5.158 5.158 0 0 0 -4.016 1.64 6.392 6.392 0 0 0 -1.49 4.468 6.4 6.4 0 0 0 1.495 4.452z" transform="translate(533.156 -310.062)"/><path d="m-372.417 320.679v16.788h-5.175v-3.039a5.574 5.574 0 0 1 -2.15 2.346 6.247 6.247 0 0 1 -3.324.872 5.808 5.808 0 0 1 -4.588-1.925 7.72 7.72 0 0 1 -1.7-5.295v-9.748h5.114v9.122a3.741 3.741 0 0 0 .888 2.662 3.118 3.118 0 0 0 2.392.948 3.165 3.165 0 0 0 2.466-.993 4.056 4.056 0 0 0 .9-2.827v-8.906z" transform="translate(517.185 -313.249)"/><path d="m-355.264 309.1a3.175 3.175 0 0 1 2.226-.767 3.176 3.176 0 0 1 2.226.767 2.512 2.512 0 0 1 .842 1.94 2.476 2.476 0 0 1 -.842 1.91 3.176 3.176 0 0 1 -2.226.768 3.175 3.175 0 0 1 -2.226-.768 2.474 2.474 0 0 1 -.842-1.91 2.51 2.51 0 0 1 .842-1.94zm4.783 6.663v16.788h-5.145v-16.791z" transform="translate(503.942 -308.33)"/><path d="m-325.618 322.305a7.726 7.726 0 0 1 1.7 5.294v9.748h-5.145v-9.147a3.7 3.7 0 0 0 -.888-2.632 3.084 3.084 0 0 0 -2.361-.948 3.212 3.212 0 0 0 -2.482.993 4.012 4.012 0 0 0 -.918 2.828v8.905h-5.145v-16.787h5.145v3.069a5.532 5.532 0 0 1 2.151-2.377 6.309 6.309 0 0 1 3.355-.873 5.814 5.814 0 0 1 4.588 1.927z" transform="translate(497.868 -313.129)"/><path d="m-298.406 330.317v4.422h-2.317a6.665 6.665 0 0 1 -4.588-1.459q-1.64-1.459-1.64-4.829v-6.167h-2.256v-4.332h2.256v-4.122h5.145v4.121h3.37v4.332h-3.37v6.258a1.886 1.886 0 0 0 .406 1.384 1.941 1.941 0 0 0 1.369.391z" transform="translate(485.262 -310.521)"/><path d="m-271.241 329.866h-11.643a3.89 3.89 0 0 0 .963 2.723 3.1 3.1 0 0 0 2.226.827 3.042 3.042 0 0 0 1.9-.572 2.671 2.671 0 0 0 .993-1.474h5.445a7.112 7.112 0 0 1 -1.445 3.175 7.7 7.7 0 0 1 -2.827 2.2 8.957 8.957 0 0 1 -3.821.8 9.02 9.02 0 0 1 -4.377-1.037 7.417 7.417 0 0 1 -2.993-2.993 9.283 9.283 0 0 1 -1.083-4.574 9.371 9.371 0 0 1 1.068-4.588 7.323 7.323 0 0 1 2.993-2.978 9.114 9.114 0 0 1 4.392-1.037 9.106 9.106 0 0 1 4.392 1.023 7.22 7.22 0 0 1 2.933 2.872 8.549 8.549 0 0 1 1.039 4.257 7.114 7.114 0 0 1 -.155 1.376zm-5.942-4.648a3.27 3.27 0 0 0 -2.271-.827 3.364 3.364 0 0 0 -2.347.842 3.525 3.525 0 0 0 -1.053 2.467h6.559a3.1 3.1 0 0 0 -.888-2.481z" transform="translate(476.778 -313.11)"/><path d="m-247.881 321.282a6.335 6.335 0 0 1 3.294-.9v5.506h-1.474a5.083 5.083 0 0 0 -3.174.872 3.5 3.5 0 0 0 -1.128 2.948v7.642h-5.145v-16.791h5.145v3.159a7.3 7.3 0 0 1 2.482-2.436z" transform="translate(463.873 -313.129)"/><path d="m-222.016 321.367a7.618 7.618 0 0 1 3.1 2.994 8.99 8.99 0 0 1 1.128 4.572 8.991 8.991 0 0 1 -1.128 4.574 7.617 7.617 0 0 1 -3.1 2.993 9.442 9.442 0 0 1 -4.468 1.037 9.527 9.527 0 0 1 -4.483-1.037 7.588 7.588 0 0 1 -3.114-2.993 8.991 8.991 0 0 1 -1.128-4.574 8.99 8.99 0 0 1 1.128-4.572 7.589 7.589 0 0 1 3.114-2.994 9.535 9.535 0 0 1 4.483-1.037 9.449 9.449 0 0 1 4.468 1.037zm-6.95 4.483a4.328 4.328 0 0 0 -1.008 3.084 4.271 4.271 0 0 0 1.009 3.066 3.3 3.3 0 0 0 2.482 1.053 3.252 3.252 0 0 0 2.467-1.053 4.313 4.313 0 0 0 .993-3.069 4.37 4.37 0 0 0 -.993-3.084 3.234 3.234 0 0 0 -2.467-1.067 3.279 3.279 0 0 0 -2.482 1.07z" transform="translate(455.788 -313.11)"/></g></svg>